<svg width="64" height="64" viewBox="0 0 64 64" fill="none" xmlns="http://www.w3.org/2000/svg">
<mask id="path-1-inside-1_44_209" fill="white">
<path d="M32.5 7C40.5081 7 47 13.4919 47 21.5C47 24.4042 46.1454 27.1082 44.6748 29.3759C43.946 30.4998 43.5882 31.8606 43.9349 33.1545L49.135 52.5621C49.3797 53.4754 48.8377 54.4141 47.9244 54.6588C47.2404 54.842 46.5141 54.5851 46.0974 54.0126L45.8677 53.6969C44.639 52.0089 41.9762 52.7223 41.756 54.7984L41.708 55.2511C41.6374 55.9171 41.164 56.4708 40.5172 56.6442C39.6534 56.8758 38.7655 56.3632 38.534 55.4994L33.4048 36.3583C33.3453 36.1364 33.1396 35.9873 32.9099 35.9935C32.6906 35.9995 32.4977 36.1462 32.4409 36.3581L27.0538 56.4633C26.817 57.347 25.9086 57.8713 25.025 57.6344C24.3633 57.4569 23.8791 56.8904 23.807 56.2092L23.7537 55.7061C23.5229 53.5276 20.7288 52.7788 19.4394 54.5499L19.0858 55.0356C18.7164 55.5431 18.0726 55.7708 17.4663 55.6084C16.6565 55.3916 16.1759 54.5593 16.3928 53.7496L21.6786 34.0216C22.0495 32.6371 21.615 31.1847 20.7712 30.0261C19.0285 27.6332 18 24.6868 18 21.5C18 13.4919 24.4919 7.00003 32.5 7Z"/>
</mask>
<path d="M32.5 7C40.5081 7 47 13.4919 47 21.5C47 24.4042 46.1454 27.1082 44.6748 29.3759C43.946 30.4998 43.5882 31.8606 43.9349 33.1545L49.135 52.5621C49.3797 53.4754 48.8377 54.4141 47.9244 54.6588C47.2404 54.842 46.5141 54.5851 46.0974 54.0126L45.8677 53.6969C44.639 52.0089 41.9762 52.7223 41.756 54.7984L41.708 55.2511C41.6374 55.9171 41.164 56.4708 40.5172 56.6442C39.6534 56.8758 38.7655 56.3632 38.534 55.4994L33.4048 36.3583C33.3453 36.1364 33.1396 35.9873 32.9099 35.9935C32.6906 35.9995 32.4977 36.1462 32.4409 36.3581L27.0538 56.4633C26.817 57.347 25.9086 57.8713 25.025 57.6344C24.3633 57.4569 23.8791 56.8904 23.807 56.2092L23.7537 55.7061C23.5229 53.5276 20.7288 52.7788 19.4394 54.5499L19.0858 55.0356C18.7164 55.5431 18.0726 55.7708 17.4663 55.6084C16.6565 55.3916 16.1759 54.5593 16.3928 53.7496L21.6786 34.0216C22.0495 32.6371 21.615 31.1847 20.7712 30.0261C19.0285 27.6332 18 24.6868 18 21.5C18 13.4919 24.4919 7.00003 32.5 7Z" fill="url(#paint0_linear_44_209)"/>
<path d="M32.5 7L32.5 5L32.5 5L32.5 7ZM17.4663 55.6084L17.9836 53.6765L17.4663 55.6084ZM16.3928 53.7496L14.461 53.232L16.3928 53.7496ZM19.4394 54.5499L21.0564 55.727L19.4394 54.5499ZM25.025 57.6344L24.5069 59.5661L25.025 57.6344ZM23.807 56.2092L21.8181 56.4199L23.807 56.2092ZM32.9099 35.9935L32.9642 37.9928L32.9099 35.9935ZM32.4409 36.3581L30.509 35.8405L32.4409 36.3581ZM33.4048 36.3583L31.4729 36.876L33.4048 36.3583ZM40.5172 56.6442L39.9993 54.7124L40.5172 56.6442ZM38.534 55.4994L40.4658 54.9817L38.534 55.4994ZM41.708 55.2511L39.7192 55.0402L41.708 55.2511ZM45.8677 53.6969L44.2506 54.8739L45.8677 53.6969ZM41.756 54.7984L39.7672 54.5875L41.756 54.7984ZM46.0974 54.0126L47.7144 52.8356L46.0974 54.0126ZM49.135 52.5621L51.0669 52.0445L49.135 52.5621ZM44.6748 29.3759L42.9968 28.2877L44.6748 29.3759ZM32.5 7V9C39.4036 9 45 14.5964 45 21.5H47H49C49 12.3873 41.6127 5 32.5 5V7ZM47 21.5H45C45 24.0061 44.2638 26.3339 42.9968 28.2877L44.6748 29.3759L46.3529 30.4641C48.0271 27.8825 49 24.8023 49 21.5H47ZM43.9349 33.1545L42.0031 33.6721L47.2032 53.0798L49.135 52.5621L51.0669 52.0445L45.8668 32.6369L43.9349 33.1545ZM46.0974 54.0126L47.7144 52.8356L47.4847 52.52L45.8677 53.6969L44.2506 54.8739L44.4804 55.1895L46.0974 54.0126ZM41.756 54.7984L39.7672 54.5875L39.7192 55.0402L41.708 55.2511L43.6969 55.462L43.7449 55.0093L41.756 54.7984ZM38.534 55.4994L40.4658 54.9817L35.3366 35.8407L33.4048 36.3583L31.4729 36.876L36.6022 56.0171L38.534 55.4994ZM32.4409 36.3581L30.509 35.8405L25.1219 55.9457L27.0538 56.4633L28.9856 56.981L34.3727 36.8758L32.4409 36.3581ZM23.807 56.2092L25.7958 55.9985L25.7425 55.4954L23.7537 55.7061L21.7648 55.9169L21.8181 56.4199L23.807 56.2092ZM19.4394 54.5499L17.8225 53.3728L17.4689 53.8585L19.0858 55.0356L20.7028 56.2127L21.0564 55.727L19.4394 54.5499ZM16.3928 53.7496L18.3247 54.2672L23.6105 34.5392L21.6786 34.0216L19.7467 33.504L14.461 53.232L16.3928 53.7496ZM20.7712 30.0261L22.3879 28.8487C20.8858 26.7862 20 24.2495 20 21.5H18H16C16 25.1242 17.1711 28.4802 19.1545 31.2036L20.7712 30.0261ZM18 21.5H20C20 14.5965 25.5965 9.00003 32.5 9L32.5 7L32.5 5C23.3873 5.00004 16 12.3873 16 21.5H18ZM21.6786 34.0216L23.6105 34.5392C24.1792 32.4165 23.4811 30.3497 22.3879 28.8487L20.7712 30.0261L19.1545 31.2036C19.749 32.0197 19.9199 32.8577 19.7467 33.504L21.6786 34.0216ZM17.4663 55.6084L17.9836 53.6765C18.2409 53.7454 18.3936 54.0099 18.3247 54.2672L16.3928 53.7496L14.461 53.232C13.9581 55.1088 15.0721 57.0378 16.9489 57.5404L17.4663 55.6084ZM19.0858 55.0356L17.4689 53.8585C17.5863 53.6973 17.7909 53.6249 17.9836 53.6765L17.4663 55.6084L16.9489 57.5404C18.3544 57.9167 19.8465 57.389 20.7028 56.2127L19.0858 55.0356ZM23.7537 55.7061L25.7425 55.4954C25.3188 51.4961 20.1895 50.1214 17.8225 53.3728L19.4394 54.5499L21.0564 55.727C21.1278 55.6289 21.1924 55.5955 21.2416 55.5796C21.3026 55.5598 21.3852 55.5544 21.4758 55.5787C21.5663 55.603 21.6352 55.649 21.6781 55.6966C21.7127 55.735 21.752 55.7962 21.7648 55.9169L23.7537 55.7061ZM25.025 57.6344L25.543 55.7026C25.6804 55.7395 25.7809 55.8571 25.7958 55.9985L23.807 56.2092L21.8181 56.4199C21.9774 57.9238 23.0462 59.1744 24.5069 59.5661L25.025 57.6344ZM27.0538 56.4633L25.1219 55.9457C25.1711 55.7623 25.3596 55.6534 25.543 55.7026L25.025 57.6344L24.5069 59.5661C26.4576 60.0892 28.4629 58.9317 28.9856 56.981L27.0538 56.4633ZM32.9099 35.9935L32.8557 33.9943C31.7864 34.0233 30.8038 34.7405 30.509 35.8405L32.4409 36.3581L34.3727 36.8758C34.1916 37.5519 33.5948 37.9757 32.9642 37.9928L32.9099 35.9935ZM33.4048 36.3583L35.3366 35.8407C35.0306 34.6987 33.9831 33.9637 32.8557 33.9943L32.9099 35.9935L32.9642 37.9928C32.2961 38.0109 31.66 37.5741 31.4729 36.876L33.4048 36.3583ZM40.5172 56.6442L39.9993 54.7124C40.2025 54.658 40.4114 54.7785 40.4658 54.9817L38.534 55.4994L36.6022 56.0171C37.1196 57.9479 39.1042 59.0936 41.035 58.576L40.5172 56.6442ZM41.708 55.2511L39.7192 55.0402C39.7358 54.8835 39.8472 54.7532 39.9993 54.7124L40.5172 56.6442L41.035 58.576C42.4809 58.1885 43.539 56.9506 43.6969 55.462L41.708 55.2511ZM45.8677 53.6969L47.4847 52.52C45.1786 49.3515 40.1804 50.6905 39.7672 54.5875L41.756 54.7984L43.7449 55.0093C43.755 54.9143 43.784 54.8744 43.8039 54.8524C43.832 54.8212 43.8815 54.7866 43.9512 54.768C44.0209 54.7493 44.0811 54.7545 44.1211 54.7674C44.1493 54.7766 44.1944 54.7966 44.2506 54.8739L45.8677 53.6969ZM47.9244 54.6588L47.4069 52.7269C47.5221 52.696 47.6443 52.7393 47.7144 52.8356L46.0974 54.0126L44.4804 55.1895C45.3839 56.431 46.9587 56.988 48.4419 56.5907L47.9244 54.6588ZM49.135 52.5621L47.2032 53.0798C47.162 52.9261 47.2532 52.7681 47.4069 52.7269L47.9244 54.6588L48.4419 56.5907C50.4222 56.0602 51.5975 54.0248 51.0669 52.0445L49.135 52.5621ZM44.6748 29.3759L42.9968 28.2877C42.0501 29.7476 41.4717 31.6891 42.0031 33.6721L43.9349 33.1545L45.8668 32.6369C45.7047 32.0321 45.8419 31.2521 46.3529 30.4641L44.6748 29.3759Z" fill="black" mask="url(#path-1-inside-1_44_209)"/>
<path d="M31.5439 17.1787C31.8449 16.2525 33.1551 16.2525 33.4561 17.1787C33.8584 18.417 35.0125 19.2549 36.3145 19.2549C37.2883 19.255 37.6931 20.5018 36.9053 21.0742C35.8521 21.8394 35.4114 23.1955 35.8135 24.4336C36.1144 25.3598 35.0545 26.13 34.2666 25.5576C33.2133 24.7924 31.7867 24.7924 30.7334 25.5576C29.9455 26.13 28.8856 25.3598 29.1865 24.4336C29.5886 23.1955 29.1479 21.8394 28.0947 21.0742C27.3069 20.5018 27.7117 19.255 28.6855 19.2549C29.9875 19.2549 31.1416 18.417 31.5439 17.1787Z" stroke="black" stroke-width="2"/>
<circle cx="32.5" cy="21.5" r="13.5" stroke="black" stroke-width="2"/>
<defs>
<linearGradient id="paint0_linear_44_209" x1="0.500002" y1="-0.500001" x2="63.5" y2="62.5" gradientUnits="userSpaceOnUse">
<stop stop-color="#F3D3BD"/>
<stop offset="1" stop-color="#B2DDF7"/>
</linearGradient>
</defs>
</svg>
