<svg width="64" height="64" viewBox="0 0 64 64" fill="none" xmlns="http://www.w3.org/2000/svg">
<mask id="path-1-inside-1_45_298" fill="white">
<path d="M32 12C43.0457 12 52 20.9543 52 32C52 43.0457 43.0457 52 32 52H16C13.7909 52 12 50.2091 12 48V32C12 20.9543 20.9543 12 32 12Z"/>
</mask>
<path d="M32 12C43.0457 12 52 20.9543 52 32C52 43.0457 43.0457 52 32 52H16C13.7909 52 12 50.2091 12 48V32C12 20.9543 20.9543 12 32 12Z" fill="url(#paint0_linear_45_298)"/>
<path d="M32 12V14C41.9411 14 50 22.0589 50 32H52H54C54 19.8497 44.1503 10 32 10V12ZM52 32H50C50 41.9411 41.9411 50 32 50V52V54C44.1503 54 54 44.1503 54 32H52ZM32 52V50H16V52V54H32V52ZM12 48H14V32H12H10V48H12ZM12 32H14C14 22.0589 22.0589 14 32 14V12V10C19.8497 10 10 19.8497 10 32H12ZM16 52V50C14.8954 50 14 49.1046 14 48H12H10C10 51.3137 12.6863 54 16 54V52Z" fill="black" mask="url(#path-1-inside-1_45_298)"/>
<path d="M32 40C32.5523 40 33 40.4477 33 41C33 41.5523 32.5523 42 32 42C31.4477 42 31 41.5523 31 41C31 40.4477 31.4477 40 32 40ZM32 20C35.866 20 39 23.134 39 27C39 30.5264 36.3921 33.4414 33 33.9268V38C33 38.5523 32.5523 39 32 39C31.4477 39 31 38.5523 31 38V33C31 32.9654 31.0015 32.9312 31.0049 32.8975C31.0562 32.3933 31.4823 32 32 32C34.7614 32 37 29.7614 37 27C37 24.2386 34.7614 22 32 22C29.2386 22 27 24.2386 27 27C27 27.5523 26.5523 28 26 28C25.4477 28 25 27.5523 25 27C25 23.134 28.134 20 32 20Z" fill="black"/>
<defs>
<linearGradient id="paint0_linear_45_298" x1="0.5" y1="0.5" x2="64" y2="64" gradientUnits="userSpaceOnUse">
<stop stop-color="#F3D3BD"/>
<stop offset="1" stop-color="#B2DDF7"/>
</linearGradient>
</defs>
</svg>
