<svg width="32" height="32" viewBox="0 0 32 32" fill="none" xmlns="http://www.w3.org/2000/svg">
<mask id="path-1-outside-1_45_245" maskUnits="userSpaceOnUse" x="9" y="1" width="14" height="29" fill="black">
<rect fill="white" x="9" y="1" width="14" height="29"/>
<path d="M16 3C18.7614 3 21 5.23858 21 8C21 10.4189 19.2822 12.4361 17 12.8994V27C17 27.5523 16.5523 28 16 28C15.4477 28 15 27.5523 15 27V12.8994C12.7178 12.4361 11 10.4189 11 8C11 5.23858 13.2386 3 16 3Z"/>
</mask>
<path d="M17 12.8994L16.6021 10.9394L15 11.2646V12.8994H17ZM15 27L13 27L15 27ZM15 12.8994H17V11.2646L15.3979 10.9394L15 12.8994ZM16 3V5C17.6569 5 19 6.34315 19 8H21H23C23 4.13401 19.866 1 16 1V3ZM21 8H19C19 9.4487 17.9709 10.6615 16.6021 10.9394L17 12.8994L17.3979 14.8594C20.5935 14.2107 23 11.3891 23 8H21ZM17 12.8994H15V27H17H19V12.8994H17ZM17 27H15C15 26.4477 15.4477 26 16 26V28V30C17.6569 30 19 28.6569 19 27H17ZM16 28V26C16.5523 26 17 26.4477 17 27L15 27L13 27C13 28.6569 14.3431 30 16 30V28ZM15 27H17V12.8994H15H13V27H15ZM15 12.8994L15.3979 10.9394C14.0291 10.6615 13 9.4487 13 8H11H9C9 11.3891 11.4065 14.2107 14.6021 14.8594L15 12.8994ZM11 8H13C13 6.34315 14.3431 5 16 5V3V1C12.134 1 9 4.13401 9 8H11Z" fill="black" mask="url(#path-1-outside-1_45_245)"/>
</svg>
