<svg width="208" height="208" viewBox="0 0 208 208" fill="none" xmlns="http://www.w3.org/2000/svg">
<path d="M104.005 34C65.3451 34 34.005 65.3401 34.005 104C34.005 142.66 65.3451 174 104.005 174" stroke="black" stroke-width="8"/>
<line x1="108.005" x2="108.005" y2="208" stroke="black" stroke-width="8"/>
<path d="M31.8787 29.0431L55.3355 52.4999" stroke="black" stroke-width="8"/>
<path d="M106.005 103L178.957 176.121" stroke="black" stroke-width="8"/>
<path d="M0 101.995H34.505" stroke="black" stroke-width="8"/>
<path d="M106.005 101.995H208" stroke="black" stroke-width="8"/>
<path d="M29.0432 176.121L53.005 152.159" stroke="black" stroke-width="8"/>
<path d="M106.085 99.0797L176.121 29.0431" stroke="black" stroke-width="8"/>
<line x1="103.177" y1="33.4559" x2="131.461" y2="5.1716" stroke="black" stroke-width="8"/>
<line x1="106.833" y1="172.172" x2="135.118" y2="200.456" stroke="black" stroke-width="8"/>
<line x1="146.005" y1="56" x2="186.005" y2="56" stroke="black" stroke-width="8"/>
<line x1="145.005" y1="60" x2="145.005" y2="20" stroke="black" stroke-width="8"/>
<line x1="168.833" y1="99.3345" x2="197.118" y2="127.619" stroke="black" stroke-width="8"/>
<line x1="165.298" y1="101.456" x2="193.582" y2="73.1716" stroke="black" stroke-width="8"/>
<line x1="150.005" y1="144" x2="150.005" y2="184" stroke="black" stroke-width="8"/>
<line x1="146.005" y1="143" x2="186.005" y2="143" stroke="black" stroke-width="8"/>
</svg>
