<svg width="64" height="64" viewBox="0 0 64 64" fill="none" xmlns="http://www.w3.org/2000/svg">
<mask id="path-1-inside-1_42_56" fill="white">
<path d="M7.81469 57.911C7.07574 58.1035 6.40242 57.4302 6.59491 56.6912L8.58752 49.0418C8.63236 48.8696 8.72232 48.7126 8.84812 48.5868L49.7856 7.64929C51.3477 6.08719 53.8803 6.08719 55.4424 7.64929L56.8567 9.0635C58.4187 10.6256 58.4187 13.1583 56.8567 14.7204L15.9192 55.6578C15.7934 55.7836 15.6363 55.8736 15.4642 55.9184L7.81469 57.911Z"/>
</mask>
<path d="M7.81469 57.911C7.07574 58.1035 6.40242 57.4302 6.59491 56.6912L8.58752 49.0418C8.63236 48.8696 8.72232 48.7126 8.84812 48.5868L49.7856 7.64929C51.3477 6.08719 53.8803 6.08719 55.4424 7.64929L56.8567 9.0635C58.4187 10.6256 58.4187 13.1583 56.8567 14.7204L15.9192 55.6578C15.7934 55.7836 15.6363 55.8736 15.4642 55.9184L7.81469 57.911Z" fill="url(#paint0_linear_42_56)"/>
<path d="M49.7856 7.64929L48.3714 6.23508L49.7856 7.64929ZM56.8567 9.0635L58.2709 7.6493L58.2709 7.64929L56.8567 9.0635ZM56.8567 14.7204L55.4424 13.3061L56.8567 14.7204ZM15.9192 55.6578L17.3334 57.072L15.9192 55.6578ZM15.4642 55.9184L15.9683 57.8538L15.4642 55.9184ZM8.58752 49.0418L6.6521 48.5376L8.58752 49.0418ZM6.59491 56.6912L8.53033 57.1954L6.59491 56.6912ZM7.81469 57.911L7.31054 55.9756L7.81469 57.911ZM6.59491 56.6912L8.53033 57.1954L10.5229 49.5459L8.58752 49.0418L6.6521 48.5376L4.6595 56.1871L6.59491 56.6912ZM8.84812 48.5868L10.2623 50.001L51.1998 9.0635L49.7856 7.64929L48.3714 6.23508L7.4339 47.1725L8.84812 48.5868ZM49.7856 7.64929L51.1998 9.0635C51.9808 8.28245 53.2472 8.28245 54.0282 9.0635L55.4424 7.64929L56.8567 6.23508C54.5135 3.89193 50.7145 3.89193 48.3714 6.23508L49.7856 7.64929ZM55.4424 7.64929L54.0282 9.0635L55.4424 10.4777L56.8567 9.0635L58.2709 7.64929L56.8567 6.23508L55.4424 7.64929ZM56.8567 9.0635L55.4424 10.4777C56.2235 11.2588 56.2235 12.5251 55.4424 13.3061L56.8567 14.7204L58.2709 16.1346C60.614 13.7914 60.614 9.99243 58.2709 7.6493L56.8567 9.0635ZM56.8567 14.7204L55.4424 13.3061L14.505 54.2436L15.9192 55.6578L17.3334 57.072L58.2709 16.1346L56.8567 14.7204ZM15.4642 55.9184L14.96 53.983L7.31054 55.9756L7.81469 57.911L8.31885 59.8464L15.9683 57.8538L15.4642 55.9184ZM15.9192 55.6578L14.505 54.2436C14.6308 54.1178 14.7878 54.0279 14.96 53.983L15.4642 55.9184L15.9683 57.8538C16.4848 57.7193 16.956 57.4494 17.3334 57.072L15.9192 55.6578ZM8.58752 49.0418L10.5229 49.5459C10.4781 49.7181 10.3881 49.8752 10.2623 50.001L8.84812 48.5868L7.4339 47.1725C7.05652 47.5499 6.78664 48.0212 6.6521 48.5376L8.58752 49.0418ZM6.59491 56.6912L4.6595 56.1871C4.08203 58.404 6.10198 60.4239 8.31885 59.8464L7.81469 57.911L7.31054 55.9756C8.0495 55.7831 8.72281 56.4565 8.53033 57.1954L6.59491 56.6912Z" fill="black" mask="url(#path-1-inside-1_42_56)"/>
<rect x="5.41421" y="13.8995" width="12" height="64" rx="3" transform="rotate(-45 5.41421 13.8995)" fill="url(#paint1_linear_42_56)" stroke="black" stroke-width="2"/>
<line x1="18.5355" y1="9.70711" x2="16.4142" y2="11.8284" stroke="black" stroke-linecap="round"/>
<line x1="21.5355" y1="12.7071" x2="18.7071" y2="15.5355" stroke="black" stroke-linecap="round"/>
<line x1="24.5355" y1="15.7071" x2="22.4142" y2="17.8284" stroke="black" stroke-linecap="round"/>
<line x1="27.5355" y1="18.7071" x2="24.7071" y2="21.5355" stroke="black" stroke-linecap="round"/>
<line x1="30.5355" y1="21.7071" x2="28.4142" y2="23.8284" stroke="black" stroke-linecap="round"/>
<line x1="33.5355" y1="24.7071" x2="30.7071" y2="27.5355" stroke="black" stroke-linecap="round"/>
<line x1="36.5355" y1="27.7071" x2="34.4142" y2="29.8284" stroke="black" stroke-linecap="round"/>
<line x1="39.5355" y1="30.7071" x2="36.7071" y2="33.5355" stroke="black" stroke-linecap="round"/>
<line x1="42.5355" y1="33.7071" x2="40.4142" y2="35.8284" stroke="black" stroke-linecap="round"/>
<line x1="45.5355" y1="36.7071" x2="42.7071" y2="39.5355" stroke="black" stroke-linecap="round"/>
<line x1="48.5355" y1="39.7071" x2="46.4142" y2="41.8284" stroke="black" stroke-linecap="round"/>
<line x1="54.8284" y1="45.7071" x2="52.7071" y2="47.8284" stroke="black" stroke-linecap="round"/>
<line x1="51.5355" y1="42.7071" x2="48.7071" y2="45.5355" stroke="black" stroke-linecap="round"/>
<path d="M48 11.0001L53.293 16.2929" stroke="black" stroke-width="2"/>
<defs>
<linearGradient id="paint0_linear_42_56" x1="0.499998" y1="0.499999" x2="64" y2="64" gradientUnits="userSpaceOnUse">
<stop stop-color="#F3D3BD"/>
<stop offset="1" stop-color="#B2DDF7"/>
</linearGradient>
<linearGradient id="paint1_linear_42_56" x1="-6" y1="3.74563" x2="72.9756" y2="65.9689" gradientUnits="userSpaceOnUse">
<stop stop-color="#F3D3BD"/>
<stop offset="1" stop-color="#B2DDF7"/>
</linearGradient>
</defs>
</svg>
