<svg width="64" height="64" viewBox="0 0 64 64" fill="none" xmlns="http://www.w3.org/2000/svg">
<mask id="path-1-inside-1_42_6" fill="white">
<path d="M35.6196 6C37.8288 6 39.6196 7.79086 39.6196 10V10.2207C39.6198 11.7054 40.5231 13.026 41.8003 13.7832C43.1058 14.5571 44.7268 14.6938 46.0415 13.9355L46.2397 13.8213C48.1528 12.7171 50.5991 13.3731 51.7036 15.2861L55.7036 22.2139C56.8081 24.1269 56.1526 26.573 54.2397 27.6777L53.0727 28.3506C52.1386 28.8895 51.6196 29.9216 51.6196 31C51.6196 31.0098 51.6196 31.0195 51.6196 31.0293C51.6172 32.6517 52.3544 34.2333 53.7593 35.0449L54.2397 35.3223C56.1526 36.427 56.8081 38.8731 55.7036 40.7861L51.7036 47.7139C50.599 49.627 48.1529 50.2823 46.2397 49.1777L44.8257 48.3613C43.7794 47.7571 42.492 47.8307 41.4399 48.4248C40.3662 49.0313 39.6196 50.1311 39.6196 51.3643V53C39.6196 55.2091 37.8288 57 35.6196 57H27.6196C25.4106 56.9999 23.6196 55.2091 23.6196 53V51.3643C23.6196 50.1312 22.873 49.0312 21.7993 48.4248C20.7472 47.8307 19.4598 47.7569 18.4136 48.3613L17.0005 49.1777C15.0873 50.2823 12.6412 49.627 11.5366 47.7139L7.53661 40.7861C6.43205 38.873 7.08732 36.4259 9.00048 35.3213L9.47997 35.0449C10.885 34.2334 11.622 32.6518 11.6196 31.0293C11.6196 31.0196 11.6196 31.0097 11.6196 31C11.6196 29.9216 11.1006 28.8896 10.1665 28.3506L9.00048 27.6777C7.08739 26.5731 6.43207 24.127 7.53661 22.2139L11.5366 15.2861C12.6412 13.373 15.0873 12.7177 17.0005 13.8223L17.1948 13.9346C18.5099 14.6935 20.1316 14.5561 21.438 13.7822C22.7157 13.0253 23.6196 11.7048 23.6196 10.2197V10C23.6196 7.79095 25.4106 6.00014 27.6196 6H35.6196ZM31.5005 21C25.7015 21 21.0005 25.701 21.0005 31.5C21.0005 37.299 25.7015 42 31.5005 42C37.2992 41.9997 42.0005 37.2988 42.0005 31.5C42.0005 25.7012 37.2992 21.0003 31.5005 21Z"/>
</mask>
<path d="M35.6196 6C37.8288 6 39.6196 7.79086 39.6196 10V10.2207C39.6198 11.7054 40.5231 13.026 41.8003 13.7832C43.1058 14.5571 44.7268 14.6938 46.0415 13.9355L46.2397 13.8213C48.1528 12.7171 50.5991 13.3731 51.7036 15.2861L55.7036 22.2139C56.8081 24.1269 56.1526 26.573 54.2397 27.6777L53.0727 28.3506C52.1386 28.8895 51.6196 29.9216 51.6196 31C51.6196 31.0098 51.6196 31.0195 51.6196 31.0293C51.6172 32.6517 52.3544 34.2333 53.7593 35.0449L54.2397 35.3223C56.1526 36.427 56.8081 38.8731 55.7036 40.7861L51.7036 47.7139C50.599 49.627 48.1529 50.2823 46.2397 49.1777L44.8257 48.3613C43.7794 47.7571 42.492 47.8307 41.4399 48.4248C40.3662 49.0313 39.6196 50.1311 39.6196 51.3643V53C39.6196 55.2091 37.8288 57 35.6196 57H27.6196C25.4106 56.9999 23.6196 55.2091 23.6196 53V51.3643C23.6196 50.1312 22.873 49.0312 21.7993 48.4248C20.7472 47.8307 19.4598 47.7569 18.4136 48.3613L17.0005 49.1777C15.0873 50.2823 12.6412 49.627 11.5366 47.7139L7.53661 40.7861C6.43205 38.873 7.08732 36.4259 9.00048 35.3213L9.47997 35.0449C10.885 34.2334 11.622 32.6518 11.6196 31.0293C11.6196 31.0196 11.6196 31.0097 11.6196 31C11.6196 29.9216 11.1006 28.8896 10.1665 28.3506L9.00048 27.6777C7.08739 26.5731 6.43207 24.127 7.53661 22.2139L11.5366 15.2861C12.6412 13.373 15.0873 12.7177 17.0005 13.8223L17.1948 13.9346C18.5099 14.6935 20.1316 14.5561 21.438 13.7822C22.7157 13.0253 23.6196 11.7048 23.6196 10.2197V10C23.6196 7.79095 25.4106 6.00014 27.6196 6H35.6196ZM31.5005 21C25.7015 21 21.0005 25.701 21.0005 31.5C21.0005 37.299 25.7015 42 31.5005 42C37.2992 41.9997 42.0005 37.2988 42.0005 31.5C42.0005 25.7012 37.2992 21.0003 31.5005 21Z" fill="url(#paint0_linear_42_6)"/>
<path d="M39.6196 10L41.6196 10V10L39.6196 10ZM39.6196 10.2207L37.6196 10.2207L37.6196 10.2209L39.6196 10.2207ZM41.8003 13.7832L40.7803 15.5036L40.7804 15.5036L41.8003 13.7832ZM46.0415 13.9355L45.0428 12.2027L45.0422 12.2031L46.0415 13.9355ZM46.2397 13.8213L47.2384 15.5541L47.2395 15.5535L46.2397 13.8213ZM51.7036 15.2861L49.9716 16.2861L49.9716 16.2862L51.7036 15.2861ZM55.7036 22.2139L57.4357 21.2139L57.4356 21.2138L55.7036 22.2139ZM54.2397 27.6777L55.2387 29.4104L55.24 29.4097L54.2397 27.6777ZM53.0727 28.3506L52.0738 26.6179L52.0733 26.6182L53.0727 28.3506ZM51.6196 31.0293L53.6196 31.0323L53.6196 31.0322L51.6196 31.0293ZM53.7593 35.0449L52.7588 36.7767L52.7594 36.7771L53.7593 35.0449ZM54.2397 35.3223L55.24 33.5903L55.2396 33.5901L54.2397 35.3223ZM55.7036 40.7861L57.4356 41.7862L57.4357 41.7861L55.7036 40.7861ZM51.7036 47.7139L49.9716 46.7138L49.9716 46.7139L51.7036 47.7139ZM46.2397 49.1777L45.2397 50.9098L45.2398 50.9098L46.2397 49.1777ZM44.8257 48.3613L43.8254 50.0932L43.8257 50.0934L44.8257 48.3613ZM41.4399 48.4248L40.4565 46.6833L40.4564 46.6834L41.4399 48.4248ZM27.6196 57L27.6195 59H27.6196V57ZM23.6196 53L21.6196 53V53L23.6196 53ZM21.7993 48.4248L22.7828 46.6833L22.7828 46.6833L21.7993 48.4248ZM18.4136 48.3613L17.4131 46.6296L17.4131 46.6296L18.4136 48.3613ZM17.0005 49.1777L18.0005 50.9098L18.001 50.9095L17.0005 49.1777ZM11.5366 47.7139L13.2687 46.7139L13.2686 46.7138L11.5366 47.7139ZM7.53661 40.7861L5.80456 41.7861L5.80459 41.7862L7.53661 40.7861ZM9.00048 35.3213L8.00175 33.5885L8.00048 33.5892L9.00048 35.3213ZM9.47997 35.0449L10.4787 36.7777L10.4803 36.7768L9.47997 35.0449ZM11.6196 31.0293L13.6196 31.0264L13.6196 31.0264L11.6196 31.0293ZM10.1665 28.3506L11.1662 26.6184L11.1661 26.6183L10.1665 28.3506ZM9.00048 27.6777L8.00043 29.4098L8.00087 29.41L9.00048 27.6777ZM7.53661 22.2139L5.80459 21.2138L5.80456 21.2139L7.53661 22.2139ZM11.5366 15.2861L13.2686 16.2862L13.2687 16.2861L11.5366 15.2861ZM17.0005 13.8223L18.0012 12.0906L18.0005 12.0902L17.0005 13.8223ZM17.1948 13.9346L16.1941 15.6662L16.1952 15.6668L17.1948 13.9346ZM21.438 13.7822L22.4572 15.503L22.4573 15.503L21.438 13.7822ZM27.6196 6L27.6196 4L27.6195 4L27.6196 6ZM31.5005 21L31.5006 19H31.5005V21ZM31.5005 42L31.5005 44L31.5006 44L31.5005 42ZM35.6196 6V8C36.7242 8 37.6196 8.89543 37.6196 10L39.6196 10L41.6196 10C41.6196 6.68629 38.9333 4 35.6196 4V6ZM39.6196 10H37.6196V10.2207H39.6196H41.6196V10H39.6196ZM39.6196 10.2207L37.6196 10.2209C37.6198 12.5457 39.0204 14.4602 40.7803 15.5036L41.8003 13.7832L42.8202 12.0628C42.0258 11.5918 41.6197 10.8652 41.6196 10.2205L39.6196 10.2207ZM41.8003 13.7832L40.7804 15.5036C42.5881 16.5753 44.9887 16.8516 47.0408 15.668L46.0415 13.9355L45.0422 12.2031C44.4649 12.5361 43.6235 12.539 42.8202 12.0628L41.8003 13.7832ZM46.0415 13.9355L47.0402 15.6683L47.2384 15.5541L46.2397 13.8213L45.241 12.0885L45.0428 12.2027L46.0415 13.9355ZM46.2397 13.8213L47.2395 15.5535C48.1957 15.0016 49.4191 15.3293 49.9716 16.2861L51.7036 15.2861L53.4357 14.2861C51.7791 11.4169 48.1099 10.4326 45.24 12.0891L46.2397 13.8213ZM51.7036 15.2861L49.9716 16.2862L53.9716 23.2139L55.7036 22.2139L57.4356 21.2138L53.4356 14.2861L51.7036 15.2861ZM55.7036 22.2139L53.9716 23.2139C54.5237 24.1702 54.1961 25.3934 53.2395 25.9458L54.2397 27.6777L55.24 29.4097C58.1091 27.7527 59.0925 24.0836 57.4357 21.2139L55.7036 22.2139ZM54.2397 27.6777L53.2408 25.9451L52.0738 26.6179L53.0727 28.3506L54.0717 30.0832L55.2387 29.4104L54.2397 27.6777ZM53.0727 28.3506L52.0733 26.6182C50.4372 27.5621 49.6196 29.308 49.6196 31H51.6196H53.6196C53.6196 30.5352 53.8401 30.2169 54.0722 30.083L53.0727 28.3506ZM51.6196 31H49.6196C49.6196 31.0139 49.6196 31.0183 49.6196 31.0264L51.6196 31.0293L53.6196 31.0322C53.6196 31.0208 53.6196 31.0056 53.6196 31H51.6196ZM51.6196 31.0293L49.6196 31.0263C49.6164 33.2104 50.6119 35.5365 52.7588 36.7767L53.7593 35.0449L54.7597 33.3131C54.0969 32.9302 53.6181 32.0931 53.6196 31.0323L51.6196 31.0293ZM53.7593 35.0449L52.7594 36.7771L53.2399 37.0544L54.2397 35.3223L55.2396 33.5901L54.7591 33.3128L53.7593 35.0449ZM54.2397 35.3223L53.2395 37.0542C54.1961 37.6066 54.5237 38.8298 53.9716 39.7861L55.7036 40.7861L57.4357 41.7861C59.0925 38.9164 58.1091 35.2473 55.24 33.5903L54.2397 35.3223ZM55.7036 40.7861L53.9716 39.7861L49.9716 46.7138L51.7036 47.7139L53.4356 48.7139L57.4356 41.7862L55.7036 40.7861ZM51.7036 47.7139L49.9716 46.7139C49.4194 47.6703 48.1965 47.998 47.2397 47.4457L46.2397 49.1777L45.2398 50.9098C48.1093 52.5665 51.7787 51.5838 53.4357 48.7139L51.7036 47.7139ZM46.2397 49.1777L47.2397 47.4457L45.8257 46.6293L44.8257 48.3613L43.8257 50.0934L45.2397 50.9098L46.2397 49.1777ZM44.8257 48.3613L45.8259 46.6294C44.0786 45.6203 42.0308 45.7942 40.4565 46.6833L41.4399 48.4248L42.4234 50.1663C42.9531 49.8671 43.4802 49.8939 43.8254 50.0932L44.8257 48.3613ZM41.4399 48.4248L40.4564 46.6834C38.8594 47.5853 37.6196 49.297 37.6196 51.3643H39.6196H41.6196C41.6196 50.9652 41.873 50.4772 42.4235 50.1662L41.4399 48.4248ZM39.6196 51.3643H37.6196V53H39.6196H41.6196V51.3643H39.6196ZM39.6196 53H37.6196C37.6196 54.1046 36.7242 55 35.6196 55V57V59C38.9333 59 41.6196 56.3137 41.6196 53H39.6196ZM35.6196 57V55H27.6196V57V59H35.6196V57ZM27.6196 57L27.6197 55C26.5151 54.9999 25.6196 54.1044 25.6196 53L23.6196 53L21.6196 53C21.6196 56.3137 24.3061 58.9998 27.6195 59L27.6196 57ZM23.6196 53H25.6196V51.3643H23.6196H21.6196V53H23.6196ZM23.6196 51.3643H25.6196C25.6196 49.2971 24.3799 47.5852 22.7828 46.6833L21.7993 48.4248L20.8159 50.1663C21.3661 50.4771 21.6196 50.9652 21.6196 51.3643H23.6196ZM21.7993 48.4248L22.7828 46.6833C21.2086 45.7943 19.1607 45.6199 17.4131 46.6296L18.4136 48.3613L19.414 50.0931C19.7589 49.8938 20.2858 49.867 20.8159 50.1663L21.7993 48.4248ZM18.4136 48.3613L17.4131 46.6296L16 47.446L17.0005 49.1777L18.001 50.9095L19.4141 50.0931L18.4136 48.3613ZM17.0005 49.1777L16.0005 47.4457C15.0438 47.998 13.8209 47.6703 13.2687 46.7139L11.5366 47.7139L9.80457 48.7139C11.4615 51.5837 15.1309 52.5666 18.0005 50.9098L17.0005 49.1777ZM11.5366 47.7139L13.2686 46.7138L9.26863 39.7861L7.53661 40.7861L5.80459 41.7862L9.80459 48.7139L11.5366 47.7139ZM7.53661 40.7861L9.26867 39.7861C8.71619 38.8292 9.04424 37.6054 10.0005 37.0533L9.00048 35.3213L8.00048 33.5892C5.1304 35.2463 4.14791 38.9167 5.80456 41.7861L7.53661 40.7861ZM9.00048 35.3213L9.99921 37.0541L10.4787 36.7777L9.47997 35.0449L8.48124 33.3121L8.00175 33.5885L9.00048 35.3213ZM9.47997 35.0449L10.4803 36.7768C12.6276 35.5365 13.6228 33.2103 13.6196 31.0264L11.6196 31.0293L9.61962 31.0322C9.62116 32.0934 9.14235 32.9303 8.47967 33.313L9.47997 35.0449ZM11.6196 31.0293L13.6196 31.0264C13.6196 31.0183 13.6196 31.0139 13.6196 31H11.6196H9.61962C9.61962 31.0056 9.61961 31.0208 9.61962 31.0322L11.6196 31.0293ZM11.6196 31H13.6196C13.6196 29.3077 12.8019 27.5623 11.1662 26.6184L10.1665 28.3506L9.1668 30.0828C9.39926 30.217 9.61962 30.5354 9.61962 31H11.6196ZM10.1665 28.3506L11.1661 26.6183L10.0001 25.9455L9.00048 27.6777L8.00087 29.41L9.16688 30.0829L10.1665 28.3506ZM9.00048 27.6777L10.0005 25.9457C9.04406 25.3935 8.71635 24.1705 9.26867 23.2139L7.53661 22.2139L5.80456 21.2139C4.14778 24.0835 5.13072 27.7528 8.00043 29.4098L9.00048 27.6777ZM7.53661 22.2139L9.26863 23.2139L13.2686 16.2862L11.5366 15.2861L9.80459 14.2861L5.80459 21.2138L7.53661 22.2139ZM11.5366 15.2861L13.2687 16.2861C13.8209 15.3297 15.0438 15.002 16.0005 15.5543L17.0005 13.8223L18.0005 12.0902C15.1309 10.4334 11.4615 11.4163 9.80457 14.2861L11.5366 15.2861ZM17.0005 13.8223L15.9998 15.5539L16.1941 15.6662L17.1948 13.9346L18.1955 12.2029L18.0012 12.0906L17.0005 13.8223ZM17.1948 13.9346L16.1952 15.6668C18.2485 16.8517 20.6497 16.5736 22.4572 15.503L21.438 13.7822L20.4187 12.0614C19.6134 12.5385 18.7714 12.5353 18.1945 12.2023L17.1948 13.9346ZM21.438 13.7822L22.4573 15.503C24.2179 14.46 25.6196 12.5455 25.6196 10.2197H23.6196H21.6196C21.6196 10.8641 21.2135 11.5906 20.4186 12.0615L21.438 13.7822ZM23.6196 10.2197H25.6196V10H23.6196H21.6196V10.2197H23.6196ZM23.6196 10H25.6196C25.6196 8.89564 26.5151 8.00007 27.6197 8L27.6196 6L27.6195 4C24.3061 4.00021 21.6196 6.68625 21.6196 10H23.6196ZM27.6196 6V8H35.6196V6V4H27.6196V6ZM31.5005 21V19C24.5969 19 19.0005 24.5964 19.0005 31.5H21.0005H23.0005C23.0005 26.8056 26.8061 23 31.5005 23V21ZM21.0005 31.5H19.0005C19.0005 38.4036 24.5969 44 31.5005 44V42V40C26.8061 40 23.0005 36.1944 23.0005 31.5H21.0005ZM31.5005 42L31.5006 44C38.4037 43.9997 44.0005 38.4035 44.0005 31.5H42.0005H40.0005C40.0005 36.1942 36.1947 39.9998 31.5004 40L31.5005 42ZM42.0005 31.5H44.0005C44.0005 24.5965 38.4037 19.0003 31.5006 19L31.5005 21L31.5004 23C36.1947 23.0002 40.0005 26.8058 40.0005 31.5H42.0005Z" fill="black" mask="url(#path-1-inside-1_42_6)"/>
<defs>
<linearGradient id="paint0_linear_42_6" x1="0.500001" y1="0.499999" x2="63.5" y2="63.5" gradientUnits="userSpaceOnUse">
<stop stop-color="#F3D3BD"/>
<stop offset="1" stop-color="#B2DDF7"/>
</linearGradient>
</defs>
</svg>
