<svg width="32" height="32" viewBox="0 0 32 32" fill="none" xmlns="http://www.w3.org/2000/svg">
<mask id="path-1-outside-1_45_232" maskUnits="userSpaceOnUse" x="0.100505" y="0.171573" width="32.5269" height="32.5269" fill="black">
<rect fill="white" x="0.100505" y="0.171573" width="32.5269" height="32.5269"/>
<path d="M13.4353 9.4642C12.6817 10.2178 12.5968 11.4108 13.2362 12.2635L15.507 15.2922C16.0755 16.0502 16.7488 16.7235 17.5068 17.292L20.5355 19.5628C21.3882 20.2021 22.5812 20.1173 23.3348 19.3637C24.1712 18.5273 25.5273 18.5273 26.3637 19.3637L27.3241 20.3241C28.691 21.691 28.691 23.907 27.3241 25.2739L26.5952 26.0027C25.1877 27.4103 22.9593 27.5687 21.3668 26.3743L13.9713 20.8275C13.2133 20.259 12.54 19.5857 11.9715 18.8277L6.42471 11.4322C5.23032 9.83973 5.38868 7.61132 6.79625 6.20375L7.52513 5.47487C8.89196 4.10804 11.108 4.10804 12.4749 5.47487L13.4353 6.43529C14.2717 7.2717 14.2717 8.62779 13.4353 9.4642Z"/>
</mask>
<path d="M15.507 15.2922L13.9068 16.492L13.907 16.4922L15.507 15.2922ZM17.5068 17.292L16.3068 18.892L16.307 18.8922L17.5068 17.292ZM13.9713 20.8275L12.7712 22.4275L12.7712 22.4275L13.9713 20.8275ZM11.9715 18.8277L10.3715 20.0277L10.3715 20.0278L11.9715 18.8277ZM13.2362 12.2635L11.636 13.4632L13.2362 12.2635ZM13.2362 12.2635L11.636 13.4632L13.9068 16.492L15.507 15.2922L17.1072 14.0924L14.8363 11.0637L13.2362 12.2635ZM15.507 15.2922L13.907 16.4922C14.5892 17.4018 15.3972 18.2098 16.3068 18.892L17.5068 17.292L18.7068 15.692C18.1004 15.2372 17.5618 14.6986 17.107 14.0922L15.507 15.2922ZM17.5068 17.292L16.307 18.8922L19.3358 21.163L20.5355 19.5628L21.7353 17.9627L18.7066 15.6918L17.5068 17.292ZM26.3637 19.3637L24.9495 20.7779L25.9099 21.7383L27.3241 20.3241L28.7383 18.9099L27.7779 17.9495L26.3637 19.3637ZM27.3241 25.2739L25.9099 23.8596L25.181 24.5885L26.5952 26.0027L28.0095 27.4169L28.7383 26.6881L27.3241 25.2739ZM21.3668 26.3743L22.5668 24.7743L15.1713 19.2275L13.9713 20.8275L12.7712 22.4275L20.1668 27.9743L21.3668 26.3743ZM13.9713 20.8275L15.1713 19.2275C14.5649 18.7727 14.0263 18.2341 13.5715 17.6277L11.9715 18.8277L10.3715 20.0278C11.0537 20.9373 11.8617 21.7453 12.7712 22.4275L13.9713 20.8275ZM11.9715 18.8277L13.5715 17.6277L8.0247 10.2322L6.42471 11.4322L4.82472 12.6322L10.3715 20.0277L11.9715 18.8277ZM6.79625 6.20375L8.21047 7.61796L8.93934 6.88909L7.52513 5.47487L6.11091 4.06066L5.38204 4.78953L6.79625 6.20375ZM12.4749 5.47487L11.0607 6.88909L12.0211 7.84951L13.4353 6.43529L14.8495 5.02108L13.8891 4.06066L12.4749 5.47487ZM7.52513 5.47487L8.93934 6.88909C9.52513 6.3033 10.4749 6.3033 11.0607 6.88909L12.4749 5.47487L13.8891 4.06066C11.7412 1.91278 8.2588 1.91278 6.11091 4.06066L7.52513 5.47487ZM6.42471 11.4322L8.0247 10.2322C7.4275 9.43595 7.50668 8.32175 8.21047 7.61796L6.79625 6.20375L5.38204 4.78953C3.27067 6.9009 3.03314 10.2435 4.82472 12.6322L6.42471 11.4322ZM26.5952 26.0027L25.181 24.5885C24.4772 25.2923 23.363 25.3715 22.5668 24.7743L21.3668 26.3743L20.1668 27.9743C22.5555 29.7659 25.8981 29.5283 28.0095 27.4169L26.5952 26.0027ZM23.3348 19.3637L24.749 20.7779C24.8044 20.7225 24.8941 20.7225 24.9495 20.7779L26.3637 19.3637L27.7779 17.9495C26.1605 16.332 23.538 16.332 21.9206 17.9495L23.3348 19.3637ZM20.5355 19.5628L19.3358 21.163C20.9847 22.3993 23.2917 22.2352 24.749 20.7779L23.3348 19.3637L21.9206 17.9495C21.8707 17.9994 21.7917 18.005 21.7353 17.9627L20.5355 19.5628ZM27.3241 20.3241L25.9099 21.7383C26.4957 22.3241 26.4957 23.2739 25.9099 23.8596L27.3241 25.2739L28.7383 26.6881C30.8862 24.5402 30.8862 21.0578 28.7383 18.9099L27.3241 20.3241ZM13.4353 6.43529L12.0211 7.84951C12.0764 7.90487 12.0764 7.99463 12.0211 8.04999L13.4353 9.4642L14.8495 10.8784C16.467 9.26096 16.467 6.63854 14.8495 5.02108L13.4353 6.43529ZM13.2362 12.2635L14.8363 11.0637C14.794 11.0073 14.7996 10.9283 14.8495 10.8784L13.4353 9.4642L12.0211 8.04999C10.5638 9.50728 10.3997 11.8143 11.636 13.4632L13.2362 12.2635Z" fill="black" mask="url(#path-1-outside-1_45_232)"/>
</svg>
