<svg width="64" height="64" viewBox="0 0 64 64" fill="none" xmlns="http://www.w3.org/2000/svg">
<mask id="path-1-inside-1_49_324" fill="white">
<path d="M50 49.5C50 50.3284 49.3284 51 48.5 51C47.6716 51 47 51.6716 47 52.5V53C47 54.6569 45.6569 56 44 56C42.3431 56 41 54.6569 41 53C41 51.8954 40.1046 51 39 51H25C23.8954 51 23 51.8954 23 53C23 54.6569 21.6569 56 20 56C18.3431 56 17 54.6569 17 53V52.5C17 51.6716 16.3284 51 15.5 51C14.6716 51 14 50.3284 14 49.5V12C14 9.79086 15.7909 8 18 8H46C48.2091 8 50 9.79086 50 12V49.5Z"/>
</mask>
<path d="M50 49.5C50 50.3284 49.3284 51 48.5 51C47.6716 51 47 51.6716 47 52.5V53C47 54.6569 45.6569 56 44 56C42.3431 56 41 54.6569 41 53C41 51.8954 40.1046 51 39 51H25C23.8954 51 23 51.8954 23 53C23 54.6569 21.6569 56 20 56C18.3431 56 17 54.6569 17 53V52.5C17 51.6716 16.3284 51 15.5 51C14.6716 51 14 50.3284 14 49.5V12C14 9.79086 15.7909 8 18 8H46C48.2091 8 50 9.79086 50 12V49.5Z" fill="url(#paint0_linear_49_324)"/>
<path d="M47 52.5H45V53H47H49V52.5H47ZM47 53H45C45 53.5523 44.5523 54 44 54V56V58C46.7614 58 49 55.7614 49 53H47ZM44 56V54C43.4477 54 43 53.5523 43 53H41H39C39 55.7614 41.2386 58 44 58V56ZM39 51V49H25V51V53H39V51ZM23 53H21C21 53.5523 20.5523 54 20 54V56V58C22.7614 58 25 55.7614 25 53H23ZM20 56V54C19.4477 54 19 53.5523 19 53H17H15C15 55.7614 17.2386 58 20 58V56ZM17 53H19V52.5H17H15V53H17ZM14 49.5H16V12H14H12V49.5H14ZM18 8V10H46V8V6H18V8ZM50 12H48V49.5H50H52V12H50ZM46 8V10C47.1046 10 48 10.8954 48 12H50H52C52 8.68629 49.3137 6 46 6V8ZM25 51V49C22.7909 49 21 50.7909 21 53H23H25H25V51ZM14 12H16C16 10.8954 16.8954 10 18 10V8V6C14.6863 6 12 8.68629 12 12H14ZM48.5 51V49C46.567 49 45 50.567 45 52.5H47H49C49 52.7761 48.7761 53 48.5 53V51ZM17 52.5H19C19 50.567 17.433 49 15.5 49V51V53C15.2239 53 15 52.7761 15 52.5H17ZM41 53H43C43 50.7909 41.2091 49 39 49V51V53H39H41ZM15.5 51V49C15.7761 49 16 49.2239 16 49.5H14H12C12 51.433 13.567 53 15.5 53V51ZM48.5 51V53C50.433 53 52 51.433 52 49.5H50H48C48 49.2239 48.2239 49 48.5 49V51Z" fill="black" mask="url(#path-1-inside-1_49_324)"/>
<rect x="21" y="17" width="22" height="6" rx="3" stroke="black" stroke-width="2"/>
<rect x="27" y="35" width="9" height="9" rx="4.5" stroke="black" stroke-width="2"/>
<path d="M26 5H37C38.6569 5 40 6.34315 40 8V9H23V8C23 6.34315 24.3431 5 26 5Z" fill="url(#paint1_linear_49_324)" stroke="black" stroke-width="2"/>
<line x1="31.5" y1="35.5" x2="31.5" y2="38.5" stroke="black" stroke-linecap="round"/>
<defs>
<linearGradient id="paint0_linear_49_324" x1="8.41088e-07" y1="8.41088e-07" x2="63.5" y2="63.5" gradientUnits="userSpaceOnUse">
<stop stop-color="#F3D3BD"/>
<stop offset="1" stop-color="#B2DDF7"/>
</linearGradient>
<linearGradient id="paint1_linear_49_324" x1="5.7434e-07" y1="1.5" x2="1.75373" y2="65.2134" gradientUnits="userSpaceOnUse">
<stop stop-color="#F3D3BD"/>
<stop offset="1" stop-color="#B2DDF7"/>
</linearGradient>
</defs>
</svg>
