<svg width="64" height="64" viewBox="0 0 64 64" fill="none" xmlns="http://www.w3.org/2000/svg">
<mask id="path-1-inside-1_42_30" fill="white">
<path d="M18.2373 11.9844L18.2422 11.9805L18.2441 11.9893L18.2588 12L18.25 12.0078L19.0205 14.7764L34.8232 30.5781C36.3571 29.6724 38.3657 29.8786 39.6836 31.1963C40.4541 31.9668 40.8431 32.9736 40.8535 33.9834C41.1585 34.1568 41.446 34.3728 41.7061 34.6328L57.2627 50.1895C58.8248 51.7516 58.8248 54.2846 57.2627 55.8467L55.8486 57.2607C54.2865 58.8228 51.7535 58.8228 50.1914 57.2607L34.6348 41.7041C34.3747 41.444 34.1588 41.1565 33.9854 40.8516C32.9756 40.8411 31.9687 40.4521 31.1982 39.6816C29.8805 38.3638 29.6744 36.3551 30.5801 34.8213L14.7783 19.0186L12.0107 18.248L12 18.2598L11.9863 18.2412L11.9824 18.2402L11.9844 18.2373L6 9.8252L9.8252 6L18.2373 11.9844Z"/>
</mask>
<path d="M18.2373 11.9844L18.2422 11.9805L18.2441 11.9893L18.2588 12L18.25 12.0078L19.0205 14.7764L34.8232 30.5781C36.3571 29.6724 38.3657 29.8786 39.6836 31.1963C40.4541 31.9668 40.8431 32.9736 40.8535 33.9834C41.1585 34.1568 41.446 34.3728 41.7061 34.6328L57.2627 50.1895C58.8248 51.7516 58.8248 54.2846 57.2627 55.8467L55.8486 57.2607C54.2865 58.8228 51.7535 58.8228 50.1914 57.2607L34.6348 41.7041C34.3747 41.444 34.1588 41.1565 33.9854 40.8516C32.9756 40.8411 31.9687 40.4521 31.1982 39.6816C29.8805 38.3638 29.6744 36.3551 30.5801 34.8213L14.7783 19.0186L12.0107 18.248L12 18.2598L11.9863 18.2412L11.9824 18.2402L11.9844 18.2373L6 9.8252L9.8252 6L18.2373 11.9844Z" fill="url(#paint0_linear_42_30)"/>
<path d="M18.2373 11.9844L17.0779 13.6141L18.308 14.4891L19.4867 13.5461L18.2373 11.9844ZM18.2422 11.9805L20.1946 11.5466L19.4985 8.41419L16.9928 10.4187L18.2422 11.9805ZM18.2441 11.9893L16.2918 12.4231L16.4549 13.1573L17.0614 13.6021L18.2441 11.9893ZM18.2588 12L19.5875 13.4948L21.4372 11.8507L19.4415 10.3872L18.2588 12ZM18.25 12.0078L16.9213 10.513L15.9887 11.342L16.3232 12.544L18.25 12.0078ZM19.0205 14.7764L17.0937 15.3126L17.2347 15.819L17.6063 16.1906L19.0205 14.7764ZM34.8232 30.5781L33.4091 31.9924L34.5053 33.0885L35.8402 32.3003L34.8232 30.5781ZM39.6836 31.1963L41.0978 29.7821L41.0977 29.782L39.6836 31.1963ZM40.8535 33.9834L38.8536 34.004L38.8655 35.1535L39.8647 35.7219L40.8535 33.9834ZM41.7061 34.6328L43.1203 33.2186L43.1201 33.2185L41.7061 34.6328ZM57.2627 50.1895L55.8485 51.6037L55.8485 51.6037L57.2627 50.1895ZM57.2627 55.8467L58.6769 57.2609L58.6769 57.2609L57.2627 55.8467ZM55.8486 57.2607L54.4344 55.8465L54.4344 55.8465L55.8486 57.2607ZM50.1914 57.2607L48.7772 58.675L48.7772 58.675L50.1914 57.2607ZM34.6348 41.7041L33.2204 43.1182L33.2206 43.1183L34.6348 41.7041ZM33.9854 40.8516L35.7238 39.8628L35.1555 38.8635L34.006 38.8517L33.9854 40.8516ZM31.1982 39.6816L29.784 41.0958L29.784 41.0959L31.1982 39.6816ZM30.5801 34.8213L32.3023 35.8382L33.0905 34.5033L31.9943 33.4071L30.5801 34.8213ZM14.7783 19.0186L16.1926 17.6044L15.821 17.2328L15.3147 17.0918L14.7783 19.0186ZM12.0107 18.248L12.5472 16.3213L11.3654 15.9923L10.5364 16.8966L12.0107 18.248ZM12 18.2598L10.3899 19.4462L11.8318 21.403L13.4743 19.6112L12 18.2598ZM11.9863 18.2412L13.5964 17.0548L13.1696 16.4755L12.4714 16.3009L11.9863 18.2412ZM11.9824 18.2402L10.3183 17.1308L8.74408 19.4922L11.4974 20.1805L11.9824 18.2402ZM11.9844 18.2373L13.6485 19.3467L14.4126 18.2005L13.6141 17.0779L11.9844 18.2373ZM6 9.8252L4.58579 8.41098L3.39009 9.60668L4.37031 10.9846L6 9.8252ZM9.8252 6L10.9846 4.37031L9.60668 3.39009L8.41098 4.58579L9.8252 6ZM18.2373 11.9844L19.4867 13.5461L19.4916 13.5422L18.2422 11.9805L16.9928 10.4187L16.9879 10.4226L18.2373 11.9844ZM18.2422 11.9805L16.2898 12.4143L16.2918 12.4231L18.2441 11.9893L20.1965 11.5554L20.1946 11.5466L18.2422 11.9805ZM18.2441 11.9893L17.0614 13.6021L17.0761 13.6128L18.2588 12L19.4415 10.3872L19.4269 10.3764L18.2441 11.9893ZM18.2588 12L16.9301 10.5052L16.9213 10.513L18.25 12.0078L19.5787 13.5026L19.5875 13.4948L18.2588 12ZM18.25 12.0078L16.3232 12.544L17.0937 15.3126L19.0205 14.7764L20.9473 14.2401L20.1768 11.4716L18.25 12.0078ZM19.0205 14.7764L17.6063 16.1906L33.4091 31.9924L34.8232 30.5781L36.2374 29.1639L20.4347 13.3621L19.0205 14.7764ZM34.8232 30.5781L35.8402 32.3003C36.6074 31.8473 37.6124 31.9535 38.2695 32.6106L39.6836 31.1963L41.0977 29.782C39.1191 27.8036 36.1068 27.4975 33.8063 28.856L34.8232 30.5781ZM39.6836 31.1963L38.2694 32.6105C38.6538 32.9949 38.8484 33.4943 38.8536 34.004L40.8535 33.9834L42.8534 33.9628C42.8378 32.4529 42.2544 30.9387 41.0978 29.7821L39.6836 31.1963ZM40.8535 33.9834L39.8647 35.7219C40.0186 35.8094 40.1622 35.9174 40.292 36.0472L41.7061 34.6328L43.1201 33.2185C42.7297 32.8281 42.2983 32.5043 41.8423 32.2449L40.8535 33.9834ZM41.7061 34.6328L40.2918 36.047L55.8485 51.6037L57.2627 50.1895L58.6769 48.7752L43.1203 33.2186L41.7061 34.6328ZM57.2627 50.1895L55.8485 51.6037C56.6295 52.3847 56.6295 53.6514 55.8485 54.4325L57.2627 55.8467L58.6769 57.2609C61.0201 54.9177 61.0201 51.1184 58.6769 48.7752L57.2627 50.1895ZM57.2627 55.8467L55.8485 54.4325L54.4344 55.8465L55.8486 57.2607L57.2628 58.675L58.6769 57.2609L57.2627 55.8467ZM55.8486 57.2607L54.4344 55.8465C53.6534 56.6276 52.3867 56.6276 51.6056 55.8465L50.1914 57.2607L48.7772 58.675C51.1203 61.0181 54.9197 61.0181 57.2628 58.675L55.8486 57.2607ZM50.1914 57.2607L51.6056 55.8465L36.049 40.2899L34.6348 41.7041L33.2206 43.1183L48.7772 58.675L50.1914 57.2607ZM34.6348 41.7041L36.0491 40.29C35.9194 40.1602 35.8114 40.0167 35.7238 39.8628L33.9854 40.8516L32.2469 41.8404C32.5062 42.2963 32.8301 42.7278 33.2204 43.1182L34.6348 41.7041ZM33.9854 40.8516L34.006 38.8517C33.4962 38.8464 32.9968 38.6518 32.6125 38.2674L31.1982 39.6816L29.784 41.0959C30.9406 42.2525 32.4549 42.8359 33.9647 42.8515L33.9854 40.8516ZM31.1982 39.6816L32.6125 38.2675C31.9555 37.6104 31.8492 36.6054 32.3023 35.8382L30.5801 34.8213L28.8579 33.8044C27.4995 36.1048 27.8055 39.1171 29.784 41.0958L31.1982 39.6816ZM30.5801 34.8213L31.9943 33.4071L16.1926 17.6044L14.7783 19.0186L13.3641 20.4327L29.1658 36.2355L30.5801 34.8213ZM14.7783 19.0186L15.3147 17.0918L12.5472 16.3213L12.0107 18.248L11.4743 20.1748L14.2419 20.9453L14.7783 19.0186ZM12.0107 18.248L10.5364 16.8966L10.5257 16.9083L12 18.2598L13.4743 19.6112L13.4851 19.5995L12.0107 18.248ZM12 18.2598L13.6101 17.0734L13.5964 17.0548L11.9863 18.2412L10.3762 19.4276L10.3899 19.4462L12 18.2598ZM11.9863 18.2412L12.4714 16.3009L12.4675 16.2999L11.9824 18.2402L11.4974 20.1805L11.5013 20.1815L11.9863 18.2412ZM11.9824 18.2402L13.6465 19.3496L13.6485 19.3467L11.9844 18.2373L10.3203 17.1279L10.3183 17.1308L11.9824 18.2402ZM11.9844 18.2373L13.6141 17.0779L7.62969 8.66584L6 9.8252L4.37031 10.9846L10.3547 19.3967L11.9844 18.2373ZM6 9.8252L7.41421 11.2394L11.2394 7.41421L9.8252 6L8.41098 4.58579L4.58579 8.41098L6 9.8252ZM9.8252 6L8.66584 7.62969L17.0779 13.6141L18.2373 11.9844L19.3967 10.3547L10.9846 4.37031L9.8252 6Z" fill="black" mask="url(#path-1-inside-1_42_30)"/>
<rect x="36.7071" y="38.8284" width="3" height="23" rx="1.5" transform="rotate(-45 36.7071 38.8284)" stroke="black"/>
<defs>
<linearGradient id="paint0_linear_42_30" x1="3.97266" y1="3.4707" x2="67.9727" y2="67.9707" gradientUnits="userSpaceOnUse">
<stop stop-color="#F3D3BD"/>
<stop offset="1" stop-color="#B2DDF7"/>
</linearGradient>
</defs>
</svg>
