<svg width="64" height="64" viewBox="0 0 64 64" fill="none" xmlns="http://www.w3.org/2000/svg">
<mask id="path-1-inside-1_45_277" fill="white">
<path d="M35.8838 30.9141C37.2786 30.1499 38.931 29.6147 40.3398 30.3525C46.0815 33.3598 49.9998 39.3737 50 46.3047C50 56.2458 41.9411 56.2051 32 56.2051C22.0589 56.2051 14 56.2458 14 46.3047C14.0002 39.3741 17.918 33.36 23.6592 30.3525C25.0682 29.6145 26.7212 30.1499 28.1162 30.9141C29.2693 31.5457 30.5925 31.9053 32 31.9053C33.4075 31.9053 34.7309 31.5458 35.8838 30.9141ZM32 12C36.9706 12 41 16.0294 41 21C41 25.9706 36.9706 30 32 30C27.0294 30 23 25.9706 23 21C23 16.0294 27.0294 12 32 12Z"/>
</mask>
<path d="M35.8838 30.9141C37.2786 30.1499 38.931 29.6147 40.3398 30.3525C46.0815 33.3598 49.9998 39.3737 50 46.3047C50 56.2458 41.9411 56.2051 32 56.2051C22.0589 56.2051 14 56.2458 14 46.3047C14.0002 39.3741 17.918 33.36 23.6592 30.3525C25.0682 29.6145 26.7212 30.1499 28.1162 30.9141C29.2693 31.5457 30.5925 31.9053 32 31.9053C33.4075 31.9053 34.7309 31.5458 35.8838 30.9141ZM32 12C36.9706 12 41 16.0294 41 21C41 25.9706 36.9706 30 32 30C27.0294 30 23 25.9706 23 21C23 16.0294 27.0294 12 32 12Z" fill="url(#paint0_linear_45_277)"/>
<path d="M35.8838 30.9141L34.9228 29.1601L34.9227 29.1601L35.8838 30.9141ZM40.3398 30.3525L41.2678 28.5808L41.2678 28.5808L40.3398 30.3525ZM50 46.3047L52 46.3047L52 46.3046L50 46.3047ZM32 56.2051V54.2051V56.2051ZM14 46.3047L12 46.3046V46.3047H14ZM23.6592 30.3525L22.7312 28.5809L22.7311 28.5809L23.6592 30.3525ZM28.1162 30.9141L27.1553 32.6681L27.1554 32.6682L28.1162 30.9141ZM35.8838 30.9141L36.8448 32.668C38.1668 31.9437 38.9742 31.895 39.4119 32.1243L40.3398 30.3525L41.2678 28.5808C38.8878 27.3343 36.3903 28.356 34.9228 29.1601L35.8838 30.9141ZM40.3398 30.3525L39.4119 32.1242C44.5209 34.8001 47.9998 40.1471 48 46.3047L50 46.3047L52 46.3046C51.9998 38.6003 47.6421 31.9194 41.2678 28.5808L40.3398 30.3525ZM50 46.3047H48C48 48.5271 47.5498 49.974 46.9111 50.9516C46.2836 51.9121 45.3509 52.6087 44.0202 53.1122C41.1841 54.1853 37.1186 54.2051 32 54.2051L32 56.2051L32 58.2051C36.8225 58.2051 41.757 58.2452 45.4357 56.8534C47.3623 56.1244 49.0656 54.9673 50.2598 53.1394C51.4428 51.3287 52 49.0528 52 46.3047H50ZM32 56.2051V54.2051C26.8814 54.2051 22.8159 54.1853 19.9798 53.1122C18.6491 52.6087 17.7164 51.9121 17.0889 50.9516C16.4502 49.974 16 48.5271 16 46.3047H14H12C12 49.0528 12.5572 51.3287 13.7402 53.1394C14.9344 54.9673 16.6377 56.1244 18.5643 56.8534C22.243 58.2452 27.1775 58.2051 32 58.2051V56.2051ZM14 46.3047L16 46.3047C16.0002 40.1474 19.4787 34.8002 24.5872 32.1242L23.6592 30.3525L22.7311 28.5809C16.3573 31.9198 12.0002 38.6008 12 46.3046L14 46.3047ZM23.6592 30.3525L24.5872 32.1242C25.0251 31.8949 25.8329 31.9437 27.1553 32.6681L28.1162 30.9141L29.0771 29.16C27.6095 28.3561 25.1113 27.3342 22.7312 28.5809L23.6592 30.3525ZM28.1162 30.9141L27.1554 32.6682C28.5951 33.4567 30.2477 33.9053 32 33.9053V31.9053V29.9053C30.9373 29.9053 29.9435 29.6346 29.077 29.16L28.1162 30.9141ZM32 31.9053V33.9053C33.7521 33.9053 35.405 33.4569 36.8448 32.668L35.8838 30.9141L34.9227 29.1601C34.0567 29.6346 33.0629 29.9053 32 29.9053V31.9053ZM32 12V14C35.866 14 39 17.134 39 21H41H43C43 14.9249 38.0751 10 32 10V12ZM41 21H39C39 24.866 35.866 28 32 28V30V32C38.0751 32 43 27.0751 43 21H41ZM32 30V28C28.134 28 25 24.866 25 21H23H21C21 27.0751 25.9249 32 32 32V30ZM23 21H25C25 17.134 28.134 14 32 14V12V10C25.9249 10 21 14.9249 21 21H23Z" fill="black" mask="url(#path-1-inside-1_45_277)"/>
<defs>
<linearGradient id="paint0_linear_45_277" x1="1.66945e-06" y1="0.5" x2="64" y2="64" gradientUnits="userSpaceOnUse">
<stop stop-color="#F3D3BD"/>
<stop offset="1" stop-color="#B2DDF7"/>
</linearGradient>
</defs>
</svg>
